# xmcd CD database generated by RipIT
#
# Track frame offsets:
# 150
# 20623
# 35731
# 65946
# 84514
# 103856
# 137922
# 169593
# 207091
# 238846
# 272231
# 307548
#
# Disc length: 4283 seconds
#
# Revision: 0
# Processed by: cddbd v1.5.1PL2 Copyright (c) Steve Scherf et al.
# Submitted via: RipIT 3.3.3 www.suwald.com/ripit/ripit.html at Fr Aug 25 22:42:12 CEST 2006
#
DISCID=aa10b90c
DTITLE=Jimmy Witherspoon - As Blue As They Can Be
DYEAR=1900
DGENRE=Jazz
TTITLE0=Groove's Groove
TTITLE1=California Blues
TTITLE2=Wonderful World
TTITLE3=Misty
TTITLE4=Walking On A Tightrope
TTITLE5=Slow Blues In G
TTITLE6=Song For My Father
TTITLE7=My Friend
TTITLE8=Lonesome Road Blues
TTITLE9=On Say A Joy
TTITLE10=Danger Zone Is Everywhere
TTITLE11=The Time Has Come
EXTD=Past Perfect
EXTD=1991 New York City
EXTD=
EXTT0=
EXTT1=
EXTT2=
EXTT3=
EXTT4=
EXTT5=
EXTT6=
EXTT7=
EXTT8=
EXTT9=
EXTT10=
EXTT11=
PLAYORDER=
